<?xml version="1.0" encoding="UTF-8" standalone="no"?>
<svg
   xmlns:dc="http://purl.org/dc/elements/1.1/"
   xmlns:cc="http://creativecommons.org/ns#"
   xmlns:rdf="http://www.w3.org/1999/02/22-rdf-syntax-ns#"
   xmlns:svg="http://www.w3.org/2000/svg"
   xmlns="http://www.w3.org/2000/svg"
   xmlns:sodipodi="http://sodipodi.sourceforge.net/DTD/sodipodi-0.dtd"
   xmlns:inkscape="http://www.inkscape.org/namespaces/inkscape"
   id="svg"
   width="336.90173"
   height="336.69748"
   viewBox="0 0 336.90173 336.69748"
   version="1.1"
   sodipodi:docname="logo.svg"
   inkscape:version="0.92.4 5da689c313, 2019-01-14">
  <metadata
     id="metadata10">
    <rdf:RDF>
      <cc:Work
         rdf:about="">
        <dc:format>image/svg+xml</dc:format>
        <dc:type
           rdf:resource="http://purl.org/dc/dcmitype/StillImage" />
        <dc:title />
      </cc:Work>
    </rdf:RDF>
  </metadata>
  <defs
     id="defs8" />
  <sodipodi:namedview
     pagecolor="#ffffff"
     bordercolor="#666666"
     borderopacity="1"
     objecttolerance="10"
     gridtolerance="10"
     guidetolerance="10"
     inkscape:pageopacity="0"
     inkscape:pageshadow="2"
     inkscape:window-width="1920"
     inkscape:window-height="976"
     id="namedview6"
     showgrid="false"
     fit-margin-top="20"
     fit-margin-left="20"
     fit-margin-right="20"
     fit-margin-bottom="20"
     inkscape:zoom="1"
     inkscape:cx="250.51721"
     inkscape:cy="129.79826"
     inkscape:window-x="0"
     inkscape:window-y="28"
     inkscape:window-maximized="1"
     inkscape:current-layer="svgg" />
  <g
     id="svgg"
     transform="translate(-30.965118,-31.839029)">
    <rect
       style="fill:#ffffff;fill-opacity:1"
       id="rect4524"
       width="195.76271"
       height="195.76271"
       x="100.45664"
       y="101.58736" />
    <path
       style="fill:#f04747;fill-rule:evenodd;stroke:none"
       d="m 186.422,52.14 c -64.3476,4.670376 -121.808809,56.21151 -132.8438,119.88776 -10.517037,52.93116 10.188757,110.67126 52.8368,143.9854 47.14229,38.86538 118.87161,43.69181 170.51983,10.86089 48.78747,-28.95863 77.44364,-87.64764 69.98396,-143.92177 C 341.09514,125.03751 297.6116,73.575011 241.67994,57.739695 223.80265,52.26243 205.01307,50.82283 186.422,52.14 Z m 19.808,54.775 c 20.3831,2.4505 29.57957,32.00138 13.69504,45.35441 -13.88903,13.75595 -40.53858,4.34744 -42.50419,-15.14199 -2.32943,-15.88735 12.07807,-33.35913 28.80915,-30.21242 z m 60.543,61.766 c 20.68957,1.66378 31.00375,31.43438 13.39581,44.09457 -14.23556,13.31073 -40.76078,4.25141 -42.38306,-15.56013 -2.10627,-16.2944 12.34167,-31.76378 28.98725,-28.53444 z m -117.731,60.721 c 19.45923,4.44021 25.60656,33.15904 8.97933,44.70784 -14.9884,12.82401 -41.17934,1.25634 -41.57551,-18.48811 -1.71268,-17.2806 16.48972,-30.35377 32.59618,-26.21973 z m 59.977,-0.063 c 19.21761,4.18694 25.99305,32.09843 10.12232,44.19584 -14.69458,13.6631 -41.71519,2.45784 -41.73161,-17.79425 -1.4185,-17.07114 15.24074,-30.57147 31.60929,-26.40159 z m 58.872,-0.228 c 19.07314,2.84644 29.19741,29.25297 13.83649,42.5678 -13.16506,14.63455 -40.50131,7.46035 -43.55138,-12.30867 -3.8506,-17.70857 12.1405,-33.86608 29.71489,-30.25913 z"
       id="path0"
       inkscape:connector-curvature="0" />
  </g>
</svg>
